<svg xmlns="http://www.w3.org/2000/svg" fill="none" viewBox="0 0 244 260"><path fill="url(#a)" d="m49.5 149 194-149v149s.7 22.6-3.5 36.1a75.8 75.8 0 0 1-21.5 36.2 77 77 0 0 1-36 21.2 90.4 90.4 0 0 1-36 4c-16-.7-25.5-2-40-8.6A83.4 83.4 0 0 1 78 217.7a85.8 85.8 0 0 1-22-34.3 156.6 156.6 0 0 1-6.5-34.4Z"/><path fill="url(#b)" d="M162 137V.5L0 123.5V260l162-123Z"/><path fill="#303038" d="M162 62.6 49.5 149s1.6 21.6 6.5 34.4a87.2 87.2 0 0 0 13 24.2l93-70.6V62.6Z"/><defs><linearGradient id="a" x1="195.8" x2="46.8" y1="285.6" y2="-22.6" gradientUnits="userSpaceOnUse"><stop stop-color="#25F98B"/><stop offset="1" stop-color="#02FFFD"/></linearGradient><linearGradient id="b" x1="244.2" x2="112.4" y1="260" y2="-55.5" gradientUnits="userSpaceOnUse"><stop stop-color="#F39D00"/><stop offset=".5" stop-color="#FF3AC8"/><stop offset="1" stop-color="#B25EF5"/></linearGradient></defs></svg>
